<?xml version="1.0" encoding="utf-8"?>
<!-- Generator: Adobe Illustrator 15.0.0, SVG Export Plug-In . SVG Version: 6.00 Build 0)  -->
<!DOCTYPE svg PUBLIC "-//W3C//DTD SVG 1.1//EN" "http://www.w3.org/Graphics/SVG/1.1/DTD/svg11.dtd">
<svg version="1.1" xmlns="http://www.w3.org/2000/svg" xmlns:xlink="http://www.w3.org/1999/xlink" x="0px" y="0px"
	 width="470.28px" height="294.05px" viewBox="0 0 470.28 294.05" enable-background="new 0 0 470.28 294.05" xml:space="preserve">
<g id="Layer_3">
	<rect x="-23.316" y="-47.144" fill="#D6D5D4" width="529" height="369"/>
</g>
<g id="Layer_2">
	<g>
		<g id="XMLID_1_">
			<g>
				<polygon fill="#FED265" points="456.183,126.805 408.695,242.576 391.456,240.301 421.714,129.822 				"/>
				<path fill="#FED265" d="M389.451,254.593c8.489,0,15.365,6.855,15.365,15.295c0,8.429-6.876,15.284-15.365,15.284
					s-15.374-6.855-15.374-15.284C374.077,261.448,380.962,254.593,389.451,254.593z"/>
				<polygon fill="#FED265" points="387.697,146.529 366.31,281.845 340.591,281.845 346.936,236.743 321.909,274.859 
					307.517,227.041 292.142,275.48 267.085,275.48 277.448,239.389 277.448,238.737 289.476,238.737 299.709,138.491 
					319.874,136.166 331.571,211.325 363.974,145.186 				"/>
				<path fill="#FED265" d="M299.709,138.491l-10.233,100.246h-12.027H260.41l5.342-37.084l-19.043-1.343l-12.027,30.739
					l-28.735-1.343l13.2-29.276l19.875-2.135l9.401-65.377l22.01-44.861l34.738-3.007L299.709,138.491z M270.433,175.735
					l3.639-40.752l-16.007,40.09L270.433,175.735z"/>
				<path fill="#FED265" d="M248.423,132.918l-9.401,65.377l-19.875,2.135l-8.188,0.882l4.681-39.088l-23.383-1.333l-14.703,34.087
					l-28.394,0.982l18.041-41.413h12.689l12.739-59.745l0.24,0.05l29.787-60.246l40.09-1.333L248.423,132.918z M220.661,134.211
					l6.003-51.506l-22.25,51.156L220.661,134.211z"/>
				<polygon fill="#FED265" points="210.958,8.878 192.627,94.803 179.889,154.548 167.2,154.548 151.494,154.548 164.854,90.733 
					129.114,90.402 117.087,148.864 98.174,148.864 97.683,148.734 134.456,8.878 143.476,8.878 132.451,65.677 170.868,65.677 
					182.895,8.878 				"/>
				<polygon fill="#FED265" points="134.456,8.878 97.683,148.734 95.368,157.554 70.642,157.554 60.619,97.749 35.903,154.868 
					13.182,154.868 25.881,8.878 52.942,8.878 49.264,71.69 74.571,35.278 88.683,81.031 105.721,8.878 				"/>
			</g>
			<g>
				<polygon fill="none" stroke="#000000" stroke-width="4" points="134.456,8.878 105.721,8.878 88.683,81.031 74.571,35.278 
					49.264,71.69 52.942,8.878 25.881,8.878 13.182,154.868 35.903,154.868 60.619,97.749 70.642,157.554 95.368,157.554 
					97.683,148.734 				"/>
				<polyline fill="none" stroke="#000000" stroke-width="4" points="134.456,8.878 143.476,8.878 132.451,65.677 170.868,65.677 
					182.895,8.878 210.958,8.878 192.627,94.803 179.889,154.548 167.2,154.548 151.494,154.548 164.854,90.733 129.114,90.402 
					117.087,148.864 98.174,148.864 				"/>
				<polyline fill="none" stroke="#000000" stroke-width="4" points="167.2,154.548 149.159,195.961 177.553,194.979 
					192.256,160.892 215.639,162.225 210.958,201.313 219.147,200.431 239.021,198.296 248.423,132.918 262.745,33.273 
					222.655,34.606 192.868,94.853 				"/>
				<polygon fill="none" stroke="#000000" stroke-width="3" stroke-miterlimit="8" points="204.414,133.861 226.664,82.705 
					220.661,134.211 				"/>
				<polyline fill="none" stroke="#000000" stroke-width="4" stroke-miterlimit="8" points="248.303,133.159 248.423,132.918 
					270.433,88.057 305.171,85.05 299.709,138.491 289.476,238.737 277.448,238.737 260.41,238.737 265.752,201.653 
					246.709,200.311 234.682,231.05 205.947,229.707 219.147,200.431 219.618,199.389 				"/>
				<polygon fill="none" stroke="#000000" stroke-width="2.75" stroke-miterlimit="7" points="258.064,175.073 274.071,134.983 
					270.433,175.735 				"/>
				<polyline fill="none" stroke="#000000" stroke-width="4" stroke-miterlimit="7" points="299.579,138.511 299.709,138.491 
					319.874,136.166 331.571,211.325 363.974,145.186 387.697,146.529 366.31,281.845 340.591,281.845 346.936,236.743 
					321.909,274.859 307.517,227.041 292.142,275.48 267.085,275.48 277.448,239.389 				"/>
				<path fill="none" stroke="#000000" stroke-width="4" stroke-miterlimit="7" d="M404.816,269.888
					c0,8.429-6.876,15.284-15.365,15.284s-15.374-6.855-15.374-15.284c0-8.439,6.885-15.295,15.374-15.295
					S404.816,261.448,404.816,269.888z"/>
				<polygon fill="none" stroke="#000000" stroke-width="4" stroke-miterlimit="7" points="391.456,240.301 408.695,242.576 
					456.183,126.805 421.714,129.822 				"/>
			</g>
		</g>
	</g>
</g>
</svg>
